<?xml version="1.0" encoding="UTF-8" standalone="no"?>
<svg
   xmlns:dc="http://purl.org/dc/elements/1.1/"
   xmlns:cc="http://creativecommons.org/ns#"
   xmlns:rdf="http://www.w3.org/1999/02/22-rdf-syntax-ns#"
   xmlns:svg="http://www.w3.org/2000/svg"
   xmlns="http://www.w3.org/2000/svg"
   xmlns:sodipodi="http://sodipodi.sourceforge.net/DTD/sodipodi-0.dtd"
   xmlns:inkscape="http://www.inkscape.org/namespaces/inkscape"
   width="56"
   height="56"
   version="1.1"
   id="svg8"
   sodipodi:docname="btn_embedded_square_huge.svg"
   inkscape:version="1.0.2 (e86c870879, 2021-01-15)">
  <metadata
     id="metadata14">
    <rdf:RDF>
      <cc:Work
         rdf:about="">
        <dc:format>image/svg+xml</dc:format>
        <dc:type
           rdf:resource="http://purl.org/dc/dcmitype/StillImage" />
        <dc:title></dc:title>
      </cc:Work>
    </rdf:RDF>
  </metadata>
  <defs
     id="defs12" />
  <sodipodi:namedview
     pagecolor="#ffffff"
     bordercolor="#666666"
     borderopacity="1"
     objecttolerance="10"
     gridtolerance="10"
     guidetolerance="10"
     inkscape:pageopacity="0"
     inkscape:pageshadow="2"
     inkscape:window-width="1920"
     inkscape:window-height="1017"
     id="namedview10"
     showgrid="false"
     inkscape:zoom="5.6019064"
     inkscape:cx="42.576418"
     inkscape:cy="24.474694"
     inkscape:window-x="0"
     inkscape:window-y="26"
     inkscape:window-maximized="1"
     inkscape:current-layer="svg8" />
  <g
     id="g19"
     transform="matrix(1.6874967,0,0,1.687502,-0.68749604,-0.687502)"
     style="stroke-width:0.592593">
    <path
       d="M 1.80078,1 C 1.366229,1 0.999999,1.36623 0.999999,1.800781 v 30.3984 c 0,0.434551 0.36623,0.800781 0.800781,0.800781 h 30.3985 c 0.434551,0 0.800781,-0.36623 0.800781,-0.800781 V 1.800781 C 33.000061,1.36623 32.633831,1 32.19928,1 Z M 3,2 h 28.0001 c 0.562649,0 1,0.437351 1,1 v 28 c 0,0.562649 -0.437351,1 -1,1 H 3 C 2.437351,32 2,31.562649 2,31 V 3 C 2,2.437351 2.437351,2 3,2 Z"
       color="#000000"
       color-rendering="auto"
       dominant-baseline="auto"
       fill="#000001"
       image-rendering="auto"
       shape-rendering="auto"
       solid-color="#000000"
       style="font-variant-ligatures:normal;font-variant-position:normal;font-variant-caps:normal;font-variant-numeric:normal;font-variant-alternates:normal;font-feature-settings:normal;text-indent:0;text-decoration:none;text-decoration-line:none;text-decoration-style:solid;text-decoration-color:#000000;text-transform:none;text-orientation:mixed;white-space:normal;shape-padding:0;isolation:auto;mix-blend-mode:normal;stroke-width:0.456179;paint-order:fill markers stroke"
       id="path2" />
    <path
       d="M 3,2 C 2.437351,2 2,2.437352 2,3 V 3.5 H 3.10742 C 3.257498,3.206504 3.554327,3 3.908201,3 h 26.1837 c 0.353874,0 0.650703,0.206504 0.800781,0.5 h 1.10742 V 3 c 0,-0.562648 -0.437351,-1 -1,-1 z"
       color="#000000"
       color-rendering="auto"
       dominant-baseline="auto"
       fill="#dcdcdc"
       fill-opacity="0.0705882"
       image-rendering="auto"
       shape-rendering="auto"
       solid-color="#000000"
       style="font-variant-ligatures:normal;font-variant-position:normal;font-variant-caps:normal;font-variant-numeric:normal;font-variant-alternates:normal;font-feature-settings:normal;text-indent:0;text-decoration:none;text-decoration-line:none;text-decoration-style:solid;text-decoration-color:#000000;text-transform:none;text-orientation:mixed;white-space:normal;shape-padding:0;isolation:auto;mix-blend-mode:normal;stroke-width:0.456179;paint-order:fill markers stroke"
       id="path4" />
    <path
       d="M 3,32 C 2.437351,32 2,31.562648 2,31 V 3.5 h 1 v 26.5918 c 0,0.503636 0.404567,0.908203 0.908203,0.908203 h 26.1837 c 0.503636,0 0.908203,-0.404567 0.908203,-0.908203 V 3.5 h 1 V 31 c 0,0.562648 -0.437351,1 -1,1 z"
       color="#000000"
       color-rendering="auto"
       dominant-baseline="auto"
       fill="#d1d1d1"
       fill-opacity="0.0196078"
       image-rendering="auto"
       shape-rendering="auto"
       solid-color="#000000"
       style="font-variant-ligatures:normal;font-variant-position:normal;font-variant-caps:normal;font-variant-numeric:normal;font-variant-alternates:normal;font-feature-settings:normal;text-indent:0;text-decoration:none;text-decoration-line:none;text-decoration-style:solid;text-decoration-color:#000000;text-transform:none;text-orientation:mixed;white-space:normal;shape-padding:0;isolation:auto;mix-blend-mode:normal;stroke-width:0.456179;paint-order:fill markers stroke"
       id="path6" />
  </g>
</svg>
