<?xml version="1.0" encoding="UTF-8" standalone="no"?>
<svg
   xmlns:dc="http://purl.org/dc/elements/1.1/"
   xmlns:cc="http://creativecommons.org/ns#"
   xmlns:rdf="http://www.w3.org/1999/02/22-rdf-syntax-ns#"
   xmlns:svg="http://www.w3.org/2000/svg"
   xmlns="http://www.w3.org/2000/svg"
   xmlns:sodipodi="http://sodipodi.sourceforge.net/DTD/sodipodi-0.dtd"
   xmlns:inkscape="http://www.inkscape.org/namespaces/inkscape"
   width="56"
   height="56"
   version="1.1"
   id="svg8"
   sodipodi:docname="btn_embedded_square_huge_active.svg"
   inkscape:version="1.0.2 (e86c870879, 2021-01-15)">
  <metadata
     id="metadata14">
    <rdf:RDF>
      <cc:Work
         rdf:about="">
        <dc:format>image/svg+xml</dc:format>
        <dc:type
           rdf:resource="http://purl.org/dc/dcmitype/StillImage" />
        <dc:title></dc:title>
      </cc:Work>
    </rdf:RDF>
  </metadata>
  <defs
     id="defs12" />
  <sodipodi:namedview
     pagecolor="#ffffff"
     bordercolor="#666666"
     borderopacity="1"
     objecttolerance="10"
     gridtolerance="10"
     guidetolerance="10"
     inkscape:pageopacity="0"
     inkscape:pageshadow="2"
     inkscape:window-width="1920"
     inkscape:window-height="1017"
     id="namedview10"
     showgrid="false"
     inkscape:zoom="4.6664858"
     inkscape:cx="17.498646"
     inkscape:cy="44.709187"
     inkscape:window-x="0"
     inkscape:window-y="26"
     inkscape:window-maximized="1"
     inkscape:current-layer="svg8" />
  <path
     d="M 2.3513143,1 C 1.6180109,1 0.99999897,1.6180139 0.99999897,2.3513195 V 53.64868 C 0.99999897,54.381986 1.6180109,55 2.3513143,55 H 53.648683 c 0.733303,0 1.351315,-0.618014 1.351315,-1.35132 V 2.3513195 C 54.999998,1.6180139 54.381986,1 53.648683,1 Z M 4.3749941,2.687502 H 51.62507 c 0.949469,0 1.687497,0.7380307 1.687497,1.687502 V 51.62506 c 0,0.949471 -0.738028,1.687502 -1.687497,1.687502 H 4.3749941 c -0.9494684,0 -1.6874967,-0.738031 -1.6874967,-1.687502 V 4.375004 c 0,-0.9494713 0.7380283,-1.687502 1.6874967,-1.687502 z"
     color="#000000"
     color-rendering="auto"
     dominant-baseline="auto"
     fill="#000001"
     image-rendering="auto"
     shape-rendering="auto"
     solid-color="#000000"
     style="font-variant-ligatures:normal;font-variant-position:normal;font-variant-caps:normal;font-variant-numeric:normal;font-variant-alternates:normal;font-feature-settings:normal;text-indent:0;text-decoration:none;text-decoration-line:none;text-decoration-style:solid;text-decoration-color:#000000;text-transform:none;text-orientation:mixed;white-space:normal;shape-padding:0;isolation:auto;mix-blend-mode:normal;stroke-width:1;paint-order:fill markers stroke"
     id="path2" />
  <path
     d="m 4.3749941,2.687502 c -0.9494684,0 -1.6874967,0.7380324 -1.6874967,1.687502 V 5.218755 H 4.556265 C 4.8095211,4.7234799 5.310419,4.375004 5.9075803,4.375004 H 50.092488 c 0.597161,0 1.098059,0.3484759 1.351315,0.843751 H 53.31257 V 4.375004 c 0,-0.9494696 -0.738026,-1.687502 -1.687496,-1.687502 z"
     color="#000000"
     color-rendering="auto"
     dominant-baseline="auto"
     fill-opacity="0.211765"
     image-rendering="auto"
     shape-rendering="auto"
     solid-color="#000000"
     style="font-variant-ligatures:normal;font-variant-position:normal;font-variant-caps:normal;font-variant-numeric:normal;font-variant-alternates:normal;font-feature-settings:normal;text-indent:0;text-decoration:none;text-decoration-line:none;text-decoration-style:solid;text-decoration-color:#000000;text-transform:none;text-orientation:mixed;white-space:normal;shape-padding:0;isolation:auto;mix-blend-mode:normal;stroke-width:1;paint-order:fill markers stroke"
     id="path4" />
  <path
     d="m 4.3749941,53.312562 c -0.9494684,0 -1.6874967,-0.738032 -1.6874967,-1.687502 V 5.218755 h 1.6874967 v 44.873716 c 0,0.849886 0.6827054,1.532594 1.5325895,1.532594 H 50.092491 c 0.849884,0 1.53259,-0.682708 1.53259,-1.532594 V 5.218755 h 1.687496 V 51.62506 c 0,0.94947 -0.738028,1.687502 -1.687496,1.687502 z"
     color="#000000"
     color-rendering="auto"
     dominant-baseline="auto"
     fill-opacity="0.317647"
     image-rendering="auto"
     shape-rendering="auto"
     solid-color="#000000"
     style="font-variant-ligatures:normal;font-variant-position:normal;font-variant-caps:normal;font-variant-numeric:normal;font-variant-alternates:normal;font-feature-settings:normal;text-indent:0;text-decoration:none;text-decoration-line:none;text-decoration-style:solid;text-decoration-color:#000000;text-transform:none;text-orientation:mixed;white-space:normal;shape-padding:0;isolation:auto;mix-blend-mode:normal;stroke-width:1;paint-order:fill markers stroke"
     id="path6" />
</svg>
